<svg width="60" height="60" viewBox="0 0 60 60" fill="none" xmlns="http://www.w3.org/2000/svg">
<path d="M24.3751 32.8125C24.3751 33.3687 24.2101 33.9125 23.9011 34.375C23.592 34.8375 23.1528 35.198 22.6388 35.4109C22.1249 35.6237 21.5594 35.6794 21.0139 35.5709C20.4683 35.4624 19.9671 35.1945 19.5738 34.8012C19.1805 34.4079 18.9126 33.9067 18.8041 33.3611C18.6956 32.8156 18.7513 32.2501 18.9641 31.7362C19.177 31.2222 19.5375 30.783 20 30.4739C20.4625 30.1649 21.0063 30 21.5626 30C22.3085 30 23.0238 30.2963 23.5513 30.8237C24.0787 31.3512 24.3751 32.0665 24.3751 32.8125ZM38.4375 30C37.8813 30 37.3375 30.1649 36.875 30.4739C36.4125 30.783 36.052 31.2222 35.8391 31.7362C35.6263 32.2501 35.5706 32.8156 35.6791 33.3611C35.7876 33.9067 36.0555 34.4079 36.4488 34.8012C36.8422 35.1945 37.3433 35.4624 37.8889 35.5709C38.4344 35.6794 38.9999 35.6237 39.5138 35.4109C40.0278 35.198 40.467 34.8375 40.7761 34.375C41.0851 33.9125 41.25 33.3687 41.25 32.8125C41.25 32.0665 40.9537 31.3512 40.4263 30.8237C39.8988 30.2963 39.1835 30 38.4375 30ZM54.5453 33.7403C54.0508 33.9668 53.5135 34.0848 52.9695 34.0864C52.112 34.0854 51.2822 33.7831 50.625 33.2323V43.125C50.6222 45.6105 49.6336 47.9934 47.8761 49.751C46.1185 51.5085 43.7356 52.4971 41.25 52.5H18.7501C16.2645 52.4971 13.8816 51.5085 12.124 49.751C10.3665 47.9934 9.37788 45.6105 9.37505 43.125V33.2323C8.71786 33.7831 7.88805 34.0854 7.03062 34.0864C6.48665 34.0849 5.94932 33.9669 5.45476 33.7403C4.68407 33.4016 4.0521 32.81 3.6634 32.0632C3.27471 31.3165 3.15258 30.4594 3.31724 29.6338L7.16521 9.11059C7.25945 8.60805 7.45546 8.1301 7.74118 7.70609C8.02691 7.28209 8.39633 6.92099 8.82673 6.64499C9.25713 6.36899 9.73942 6.18391 10.244 6.10113C10.7485 6.01835 11.2647 6.03962 11.7607 6.16363L24.606 9.37496H35.3941L48.2394 6.16363C48.7354 6.03962 49.2515 6.01833 49.756 6.10109C50.2606 6.18385 50.7428 6.3689 51.1732 6.64487C51.6036 6.92084 51.973 7.28191 52.2587 7.70588C52.5444 8.12984 52.7404 8.60776 52.8347 9.11026L56.6829 29.6339C56.8475 30.4594 56.7254 31.3165 56.3367 32.0632C55.948 32.81 55.316 33.4016 54.5453 33.7403ZM46.875 43.125V28.6031L34.7136 13.125H25.2865L13.1251 28.6031V43.125C13.1268 44.6163 13.7199 46.046 14.7745 47.1005C15.829 48.1551 17.2587 48.7482 18.7501 48.75H28.1251V45.7767L24.9241 42.5758C24.5725 42.2241 24.375 41.7472 24.375 41.2499C24.375 40.7526 24.5726 40.2757 24.9243 39.924C25.2759 39.5724 25.7528 39.3749 26.2501 39.3749C26.7474 39.3749 27.2243 39.5725 27.576 39.9242L30.0001 42.3484L32.4241 39.9242C32.7758 39.5725 33.2527 39.3749 33.75 39.3749C34.2473 39.3749 34.7242 39.5724 35.0758 39.924C35.4275 40.2757 35.6251 40.7526 35.6251 41.2499C35.6251 41.7472 35.4276 42.2241 35.076 42.5758L31.8751 45.7767V48.75H41.25C42.7414 48.7482 44.1711 48.1551 45.2256 47.1005C46.2802 46.046 46.8733 44.6163 46.875 43.125Z" fill="#2D2D2D"/>
</svg>
