<svg width="60" height="60" viewBox="0 0 60 60" fill="none" xmlns="http://www.w3.org/2000/svg">
<path d="M50.627 15H41.2501V13.125C41.2484 11.6337 40.6552 10.2039 39.6007 9.14941C38.5462 8.09489 37.1164 7.50171 35.6251 7.5H24.3751C22.8838 7.50171 21.4541 8.09489 20.3995 9.14941C19.345 10.2039 18.7518 11.6337 18.7501 13.125V15H9.37695C8.38274 15.0011 7.42957 15.3966 6.72656 16.0996C6.02354 16.8026 5.62809 17.7558 5.62695 18.75V48.75C5.62809 49.7442 6.02354 50.6974 6.72656 51.4004C7.42957 52.1034 8.38274 52.4989 9.37695 52.5H50.627C51.6212 52.4989 52.5743 52.1034 53.2773 51.4004C53.9804 50.6974 54.3758 49.7442 54.377 48.75V18.75C54.3758 17.7558 53.9804 16.8026 53.2773 16.0996C52.5743 15.3966 51.6212 15.0011 50.627 15ZM22.5001 13.125C22.5007 12.6279 22.6984 12.1513 23.0499 11.7998C23.4014 11.4483 23.878 11.2506 24.3751 11.25H35.6251C36.1222 11.2506 36.5988 11.4483 36.9503 11.7998C37.3018 12.1513 37.4996 12.6279 37.5001 13.125V15H22.5001V13.125ZM50.627 18.75L50.6277 28.5014C44.2984 31.9469 37.2065 33.7514 30.0001 33.75C22.7954 33.7514 15.7052 31.9477 9.37695 28.5037V18.75H50.627ZM25.3126 28.125C25.3126 27.6277 25.5102 27.1508 25.8618 26.7992C26.2134 26.4476 26.6903 26.25 27.1876 26.25H32.8126C33.3099 26.25 33.7868 26.4475 34.1384 26.7992C34.4901 27.1508 34.6876 27.6277 34.6876 28.125C34.6876 28.6223 34.4901 29.0992 34.1384 29.4508C33.7868 29.8025 33.3099 30 32.8126 30H27.1876C26.6903 30 26.2134 29.8024 25.8618 29.4508C25.5102 29.0992 25.3126 28.6223 25.3126 28.125Z" fill="#2D2D2D"/>
</svg>
