<svg width="60" height="60" viewBox="0 0 60 60" fill="none" xmlns="http://www.w3.org/2000/svg">
<path d="M48.951 33.75C48.9558 34.5182 48.7226 35.269 48.2832 35.8991C47.8439 36.5293 47.22 37.0078 46.4976 37.2688L34.2725 41.7728L29.7686 53.9978C29.5034 54.7175 29.0238 55.3386 28.3946 55.7773C27.7654 56.216 27.0168 56.4512 26.2498 56.4512C25.4827 56.4512 24.7341 56.216 24.1049 55.7773C23.4757 55.3386 22.9962 54.7175 22.7309 53.9978L18.227 41.7728L6.00197 37.2688C5.28225 37.0036 4.66117 36.524 4.22248 35.8948C3.78379 35.2656 3.54858 34.517 3.54858 33.75C3.54858 32.983 3.78379 32.2344 4.22248 31.6052C4.66117 30.976 5.28225 30.4964 6.00197 30.2312L18.227 25.7272L22.7309 13.5022C22.9962 12.7825 23.4757 12.1614 24.1049 11.7227C24.7341 11.284 25.4827 11.0488 26.2498 11.0488C27.0168 11.0488 27.7654 11.284 28.3946 11.7227C29.0238 12.1614 29.5034 12.7825 29.7686 13.5022L34.2725 25.7272L46.4976 30.2312C47.22 30.4922 47.8439 30.9707 48.2832 31.6009C48.7226 32.231 48.9558 32.9818 48.951 33.75ZM35.6248 11.25H39.3748V15C39.3748 15.4973 39.5723 15.9742 39.9239 16.3258C40.2756 16.6775 40.7525 16.875 41.2498 16.875C41.7471 16.875 42.224 16.6775 42.5756 16.3258C42.9272 15.9742 43.1248 15.4973 43.1248 15V11.25H46.8748C47.3721 11.25 47.849 11.0525 48.2006 10.7008C48.5522 10.3492 48.7498 9.87228 48.7498 9.375C48.7498 8.87772 48.5522 8.40081 48.2006 8.04918C47.849 7.69754 47.3721 7.5 46.8748 7.5H43.1248V3.75C43.1248 3.25272 42.9272 2.77581 42.5756 2.42417C42.224 2.07254 41.7471 1.875 41.2498 1.875C40.7525 1.875 40.2756 2.07254 39.9239 2.42417C39.5723 2.77581 39.3748 3.25272 39.3748 3.75V7.5H35.6248C35.1275 7.5 34.6506 7.69754 34.2989 8.04918C33.9473 8.40081 33.7498 8.87772 33.7498 9.375C33.7498 9.87228 33.9473 10.3492 34.2989 10.7008C34.6506 11.0525 35.1275 11.25 35.6248 11.25ZM56.2498 18.75H54.3748V16.875C54.3748 16.3777 54.1772 15.9008 53.8256 15.5492C53.474 15.1975 52.9971 15 52.4998 15C52.0025 15 51.5256 15.1975 51.1739 15.5492C50.8223 15.9008 50.6248 16.3777 50.6248 16.875V18.75H48.7498C48.2525 18.75 47.7756 18.9475 47.4239 19.2992C47.0723 19.6508 46.8748 20.1277 46.8748 20.625C46.8748 21.1223 47.0723 21.5992 47.4239 21.9508C47.7756 22.3025 48.2525 22.5 48.7498 22.5H50.6248V24.375C50.6248 24.8723 50.8223 25.3492 51.1739 25.7008C51.5256 26.0525 52.0025 26.25 52.4998 26.25C52.9971 26.25 53.474 26.0525 53.8256 25.7008C54.1772 25.3492 54.3748 24.8723 54.3748 24.375V22.5H56.2498C56.7471 22.5 57.224 22.3025 57.5756 21.9508C57.9272 21.5992 58.1248 21.1223 58.1248 20.625C58.1248 20.1277 57.9272 19.6508 57.5756 19.2992C57.224 18.9475 56.7471 18.75 56.2498 18.75Z" fill="#2D2D2D"/>
</svg>
