<svg width="60" height="60" viewBox="0 0 60 60" fill="none" xmlns="http://www.w3.org/2000/svg">
<path d="M57.9634 29.2404C57.881 29.0552 55.8964 24.6524 51.4821 20.2378C45.6031 14.358 38.1745 11.25 30 11.25C28.273 11.2481 26.5488 11.3886 24.8449 11.6703C24.5126 11.7257 24.2014 11.8697 23.9439 12.0871C23.6865 12.3044 23.4924 12.5871 23.3821 12.9054C23.2717 13.2237 23.2491 13.5659 23.3167 13.8959C23.3843 14.226 23.5395 14.5317 23.7662 14.781L47.5062 40.895C47.8392 41.2612 48.3034 41.4809 48.7976 41.5062C49.2919 41.5315 49.7761 41.3605 50.1448 41.0303C55.4915 36.2412 57.865 30.9849 57.9634 30.7633C58.0699 30.5236 58.1249 30.2642 58.1249 30.0019C58.1249 29.7395 58.0699 29.4801 57.9634 29.2404Z" fill="#2D2D2D"/>
<path d="M12.6374 8.11353C12.3029 7.74555 11.8359 7.52553 11.3391 7.50188C10.8424 7.47823 10.3566 7.65288 9.98857 7.98742C9.62059 8.32195 9.40057 8.78897 9.37692 9.28572C9.35327 9.78248 9.52793 10.2683 9.86246 10.6363L14.3721 15.5968C5.85939 20.8213 2.19955 28.8737 2.03653 29.2402C1.93003 29.48 1.875 29.7394 1.875 30.0017C1.875 30.2641 1.93003 30.5235 2.03653 30.7632C2.11893 30.9486 4.10379 35.3505 8.51801 39.7642C14.3971 45.6426 21.8254 48.7499 29.9999 48.7499C34.2012 48.7744 38.3601 47.909 42.2028 46.2107L47.3625 51.8863C47.697 52.2542 48.164 52.4743 48.6608 52.4979C49.1575 52.5216 49.6433 52.3469 50.0113 52.0124C50.3793 51.6778 50.5993 51.2108 50.623 50.7141C50.6466 50.2173 50.472 49.7315 50.1374 49.3635L12.6374 8.11353ZM29.9999 38.4375C28.4578 38.4381 26.945 38.0159 25.626 37.2167C24.3071 36.4176 23.2325 35.2721 22.5191 33.9049C21.8057 32.5377 21.4809 31.001 21.5798 29.4621C21.6788 27.9231 22.1978 26.4407 23.0804 25.1761L34.144 37.346C32.8805 38.0626 31.4525 38.4387 29.9999 38.4375Z" fill="#2D2D2D"/>
</svg>
