<svg width="60" height="60" viewBox="0 0 60 60" fill="none" xmlns="http://www.w3.org/2000/svg">
<path d="M57.5154 14.367L45.9304 7.74707C45.9258 7.74444 45.921 7.74262 45.9165 7.73998C45.8793 7.71915 45.8409 7.70049 45.8023 7.68218C45.7842 7.67354 45.7662 7.66399 45.7479 7.65598C45.713 7.64076 45.6769 7.62782 45.6408 7.61473C45.6176 7.6062 45.5946 7.59676 45.5712 7.58921C45.5432 7.58028 45.5144 7.57347 45.4858 7.5658C45.4533 7.55705 45.421 7.54766 45.3883 7.54074C45.368 7.53651 45.3473 7.53387 45.3269 7.53027C45.2851 7.52289 45.2435 7.51568 45.2016 7.51116C45.1851 7.50938 45.1683 7.50898 45.1518 7.50767C45.1057 7.50395 45.0597 7.50097 45.0137 7.50069C45.0091 7.50069 45.0047 7.5 45.0001 7.5H37.5001C37.2539 7.49999 37.0101 7.54849 36.7826 7.64271C36.5551 7.73694 36.3484 7.87505 36.1743 8.04916C36.0002 8.22327 35.8621 8.42997 35.7678 8.65746C35.6736 8.88495 35.6251 9.12877 35.6251 9.375C35.6251 10.8668 35.0325 12.2976 33.9776 13.3525C32.9227 14.4074 31.492 15 30.0001 15C28.5083 15 27.0775 14.4074 26.0226 13.3525C24.9678 12.2976 24.3751 10.8668 24.3751 9.375C24.3751 9.12877 24.3266 8.88495 24.2324 8.65746C24.1382 8.42997 24.0001 8.22327 23.826 8.04916C23.6518 7.87505 23.4451 7.73694 23.2177 7.64271C22.9902 7.54849 22.7463 7.49999 22.5001 7.5H15.0001C14.9941 7.5 14.9883 7.50086 14.9822 7.50092C14.9428 7.50126 14.9035 7.50401 14.864 7.50687C14.841 7.50853 14.8178 7.50927 14.795 7.51173C14.7596 7.51562 14.7243 7.52197 14.6889 7.52792C14.6622 7.53238 14.6353 7.53588 14.6091 7.54148C14.5816 7.54732 14.5545 7.55539 14.5272 7.56254C14.4936 7.5713 14.4598 7.57942 14.427 7.58995C14.407 7.59642 14.3873 7.6046 14.3674 7.61181C14.3282 7.62583 14.2892 7.63996 14.2512 7.6565C14.2343 7.66394 14.2176 7.67286 14.2008 7.68082C14.1611 7.69958 14.1218 7.7187 14.0837 7.74004C14.0792 7.74262 14.0744 7.74445 14.0698 7.74707L2.48475 14.367C1.65285 14.8429 1.03462 15.6192 0.75691 16.5365C0.479199 17.4538 0.563062 18.4426 0.991292 19.3L5.3048 27.9269C5.61433 28.5513 6.09264 29.0766 6.68549 29.443C7.27834 29.8094 7.96201 30.0024 8.65895 30H13.1251V48.75C13.1263 49.7442 13.5217 50.6974 14.2247 51.4004C14.9277 52.1034 15.8809 52.4989 16.8751 52.5H43.1251C44.1193 52.4989 45.0725 52.1034 45.7755 51.4004C46.4785 50.6974 46.874 49.7442 46.8751 48.75V30H51.3413C52.0382 30.0024 52.7218 29.8094 53.3147 29.443C53.9075 29.0766 54.3858 28.5514 54.6953 27.927L59.0091 19.2999C59.4372 18.4424 59.5211 17.4537 59.2433 16.5364C58.9656 15.6191 58.3473 14.8429 57.5154 14.367ZM8.65895 26.25L4.34543 17.6229L13.1251 12.6059V26.25H8.65895ZM51.3413 26.25H46.8751V12.6059L55.6549 17.623L51.3413 26.25Z" fill="#2D2D2D"/>
</svg>
