<svg width="40" height="40" viewBox="0 0 40 40" fill="none" xmlns="http://www.w3.org/2000/svg">
<path d="M20.0027 33.75C20.0027 33.75 4.37775 25 4.37775 14.375C4.37806 12.4971 5.02877 10.6773 6.21922 9.22488C7.40968 7.77251 9.06641 6.77727 10.9077 6.40836C12.7491 6.03945 14.6613 6.31965 16.3194 7.20131C17.9775 8.08298 19.279 9.51169 20.0028 11.2445L20.0027 11.2446C20.7265 9.5117 22.028 8.08299 23.6861 7.20132C25.3442 6.31965 27.2564 6.03945 29.0978 6.40836C30.9391 6.77727 32.5958 7.77251 33.7863 9.22488C34.9767 10.6773 35.6274 12.4971 35.6277 14.375C35.6277 25 20.0027 33.75 20.0027 33.75Z" stroke="white" stroke-width="3" stroke-linecap="round" stroke-linejoin="round"/>
</svg>
