<svg width="60" height="60" viewBox="0 0 60 60" fill="none" xmlns="http://www.w3.org/2000/svg">
<path d="M29.9974 18.6973C29.9963 18.6635 29.9951 18.6296 29.9922 18.5955C29.9893 18.5613 29.9851 18.5275 29.9805 18.4939C29.978 18.4765 29.9773 18.4592 29.9745 18.4417L28.0995 7.19167C28.0591 6.94867 27.9713 6.716 27.841 6.50695C27.7107 6.29791 27.5405 6.11659 27.3401 5.97335C27.1397 5.83011 26.913 5.72777 26.673 5.67217C26.433 5.61657 26.1845 5.6088 25.9415 5.6493C25.6985 5.6898 25.4659 5.77779 25.2569 5.90823C25.048 6.03867 24.8668 6.209 24.7237 6.4095C24.5806 6.61 24.4784 6.83673 24.4229 7.07674C24.3675 7.31675 24.3599 7.56533 24.4005 7.80828L25.9116 16.875H21.5625V7.49998C21.5625 7.0027 21.365 6.52578 21.0133 6.17415C20.6617 5.82252 20.1848 5.62498 19.6875 5.62498C19.1902 5.62498 18.7133 5.82252 18.3617 6.17415C18.01 6.52578 17.8125 7.0027 17.8125 7.49998V16.875H13.4634L14.9745 7.80828C15.0151 7.56533 15.0075 7.31675 14.9521 7.07674C14.8966 6.83673 14.7944 6.61 14.6513 6.4095C14.5082 6.209 14.327 6.03867 14.1181 5.90823C13.9091 5.77779 13.6765 5.6898 13.4335 5.6493C13.1905 5.6088 12.9419 5.61657 12.702 5.67217C12.462 5.72777 12.2353 5.83011 12.0349 5.97335C11.8345 6.11659 11.6643 6.29791 11.534 6.50695C11.4037 6.716 11.3159 6.94867 11.2755 7.19167L9.40052 18.4417C9.39766 18.4592 9.39697 18.4765 9.39446 18.4939C9.38988 18.5275 9.38564 18.5613 9.38278 18.5955C9.37992 18.6296 9.37866 18.6635 9.37762 18.6973C9.37717 18.715 9.375 18.7322 9.375 18.75C9.375 18.7667 9.37614 18.7831 9.37626 18.7996C9.3766 18.8112 9.3766 18.8226 9.37718 18.8341C9.39982 21.228 10.2535 23.5396 11.7922 25.3737C13.3309 27.2077 15.459 28.4502 17.8125 28.8885V52.5C17.8125 52.9973 18.01 53.4742 18.3617 53.8258C18.7133 54.1774 19.1902 54.375 19.6875 54.375C20.1848 54.375 20.6617 54.1774 21.0133 53.8258C21.365 53.4742 21.5625 52.9973 21.5625 52.5V28.8885C23.916 28.4502 26.0441 27.2077 27.5828 25.3737C29.1215 23.5396 29.9752 21.228 29.9978 18.8341C29.9984 18.8226 29.9984 18.8112 29.9987 18.7996C29.9989 18.7831 30 18.7667 30 18.75C30 18.7322 29.9978 18.715 29.9974 18.6973Z" fill="#2D2D2D"/>
<path d="M49.6857 7.46681C49.6851 7.42814 49.6829 7.38945 49.6799 7.35065C49.6778 7.32433 49.6754 7.29824 49.6722 7.27226C49.6682 7.23988 49.6631 7.20749 49.6574 7.1751C49.6517 7.14249 49.6454 7.11021 49.6381 7.07828C49.6321 7.05288 49.6255 7.02759 49.6185 7.0023C49.6081 6.96465 49.5969 6.92757 49.5842 6.89095C49.5806 6.88042 49.5783 6.86977 49.5746 6.85924C49.5703 6.84791 49.565 6.83739 49.5606 6.82617C49.5464 6.78944 49.5312 6.75335 49.5148 6.71791C49.5043 6.69479 49.4933 6.67197 49.4819 6.64947C49.4664 6.61926 49.4502 6.58955 49.4331 6.56033C49.418 6.53412 49.4026 6.50837 49.3863 6.48308C49.3709 6.45927 49.3547 6.43616 49.3383 6.41304C49.3185 6.38512 49.2983 6.35776 49.277 6.33121C49.2615 6.31165 49.2452 6.29276 49.229 6.27388C49.2055 6.24687 49.1817 6.22021 49.1569 6.19469C49.1395 6.17683 49.1214 6.15967 49.1033 6.1425C49.0784 6.1187 49.0532 6.09535 49.027 6.07304C49.0059 6.05507 48.9841 6.03813 48.9622 6.02108C48.9377 6.00208 48.9131 5.9832 48.8877 5.96535C48.8617 5.94715 48.8349 5.9301 48.8081 5.91328C48.7853 5.89898 48.7625 5.88455 48.739 5.87128C48.7085 5.85388 48.6772 5.83786 48.6457 5.82218C48.624 5.81142 48.6025 5.80067 48.5804 5.79071C48.5472 5.77583 48.5135 5.76233 48.4793 5.74928C48.4566 5.7407 48.4341 5.73212 48.4109 5.72434C48.3782 5.71323 48.3449 5.70351 48.3114 5.69424C48.2846 5.6868 48.2579 5.67982 48.2309 5.67352C48.2012 5.66677 48.1711 5.66093 48.1409 5.65556C48.1079 5.6496 48.0751 5.64457 48.0418 5.64045C48.0162 5.63736 47.9906 5.63484 47.9647 5.63267C47.9264 5.62958 47.8878 5.62763 47.849 5.62683C47.8367 5.6266 47.8248 5.625 47.8124 5.625C47.8011 5.625 47.79 5.62649 47.7788 5.62672C47.7403 5.6274 47.7019 5.62946 47.6633 5.63255C47.6369 5.63461 47.6106 5.63701 47.5846 5.64022C47.5522 5.64423 47.5199 5.64926 47.4875 5.65499C47.4549 5.66071 47.4226 5.667 47.3907 5.67444C47.3653 5.68027 47.34 5.68691 47.3147 5.69389C47.2771 5.70419 47.24 5.71552 47.2034 5.72822C47.1928 5.73177 47.1822 5.73406 47.1717 5.73783C47.1485 5.7463 47.1258 5.75637 47.1028 5.76495C47.0941 5.7685 47.0851 5.77159 47.0764 5.77525C42.246 7.59063 38.3777 13.5165 35.5787 23.3952C34.309 27.9536 33.3878 32.602 32.8232 37.3002C32.7951 37.5618 32.8225 37.8263 32.9034 38.0766C32.9843 38.3269 33.117 38.5574 33.2928 38.7531C33.4686 38.9488 33.6837 39.1053 33.9239 39.2124C34.1642 39.3196 34.4243 39.375 34.6874 39.375H45.9374V52.5C45.9374 52.9973 46.135 53.4742 46.4866 53.8258C46.8382 54.1775 47.3151 54.375 47.8124 54.375C48.3097 54.375 48.7866 54.1775 49.1382 53.8258C49.4899 53.4742 49.6874 52.9973 49.6874 52.5V7.5C49.6874 7.48879 49.6859 7.47803 49.6857 7.46681Z" fill="#2D2D2D"/>
</svg>
