<svg width="60" height="60" viewBox="0 0 60 60" fill="none" xmlns="http://www.w3.org/2000/svg">
<path d="M17.8125 28.125C23.5079 28.125 28.125 23.5079 28.125 17.8125C28.125 12.1171 23.5079 7.5 17.8125 7.5C12.1171 7.5 7.5 12.1171 7.5 17.8125C7.5 23.5079 12.1171 28.125 17.8125 28.125Z" fill="#2D2D2D"/>
<path d="M42.1875 28.125C47.8829 28.125 52.5 23.5079 52.5 17.8125C52.5 12.1171 47.8829 7.5 42.1875 7.5C36.4921 7.5 31.875 12.1171 31.875 17.8125C31.875 23.5079 36.4921 28.125 42.1875 28.125Z" fill="#2D2D2D"/>
<path d="M17.8125 52.5C23.5079 52.5 28.125 47.8829 28.125 42.1875C28.125 36.4921 23.5079 31.875 17.8125 31.875C12.1171 31.875 7.5 36.4921 7.5 42.1875C7.5 47.8829 12.1171 52.5 17.8125 52.5Z" fill="#2D2D2D"/>
<path d="M42.1875 52.5C47.8829 52.5 52.5 47.8829 52.5 42.1875C52.5 36.4921 47.8829 31.875 42.1875 31.875C36.4921 31.875 31.875 36.4921 31.875 42.1875C31.875 47.8829 36.4921 52.5 42.1875 52.5Z" fill="#2D2D2D"/>
</svg>
