<svg width="60" height="60" viewBox="0 0 60 60" fill="none" xmlns="http://www.w3.org/2000/svg">
<path d="M54.7536 45.8379L45.0478 9.61548C44.7896 8.65536 44.1609 7.83693 43.2999 7.33981C42.4388 6.84269 41.4157 6.70749 40.4551 6.96388L33.2105 8.90503C33.131 8.92634 33.055 8.95407 32.978 8.98013C32.6293 8.52054 32.1791 8.1478 31.6625 7.89103C31.1459 7.63426 30.5769 7.5004 30 7.49992H22.5C21.8411 7.5001 21.1941 7.6752 20.625 8.00732C20.0559 7.6752 19.4089 7.5001 18.75 7.49992H11.25C10.2558 7.50106 9.30262 7.89651 8.59961 8.59953C7.89659 9.30254 7.50114 10.2557 7.5 11.2499V48.7499C7.50114 49.7441 7.89659 50.6973 8.59961 51.4003C9.30262 52.1033 10.2558 52.4988 11.25 52.4999H18.75C19.4089 52.4997 20.0559 52.3246 20.625 51.9925C21.1941 52.3246 21.8411 52.4997 22.5 52.4999H30C30.9942 52.4988 31.9474 52.1033 32.6504 51.4003C33.3534 50.6973 33.7489 49.7441 33.75 48.7499V25.4068L40.2647 49.7199C40.3919 50.1957 40.6116 50.6418 40.9114 51.0327C41.2111 51.4235 41.5849 51.7514 42.0114 51.9977C42.438 52.244 42.9089 52.4038 43.3972 52.468C43.8855 52.5321 44.3817 52.4995 44.8574 52.3717L52.102 50.4306C53.062 50.1722 53.8803 49.5435 54.3774 48.6825C54.8745 47.8215 55.0098 46.7985 54.7536 45.8379ZM41.4255 10.5859L42.8818 16.0193L35.637 17.9605L34.1812 12.5273L41.4255 10.5859ZM30 11.2499L30.0017 39.3749H22.5V11.2499H30ZM18.75 11.2499V16.8749H11.25V11.2499H18.75ZM30 48.7499H22.5V43.1249H30.0019L30.0023 48.7499H30ZM51.1313 46.8083L43.8868 48.7495L42.431 43.3162L49.6774 41.3744L51.1336 46.8076L51.1313 46.8083Z" fill="#2D2D2D"/>
</svg>
