<svg width="24" height="24" viewBox="0 0 24 24" fill="none" xmlns="http://www.w3.org/2000/svg">
<path d="M23.25 12C23.25 13.0384 22.9421 14.0534 22.3652 14.9168C21.7884 15.7801 20.9684 16.453 20.0091 16.8504C19.0498 17.2477 17.9942 17.3517 16.9758 17.1491C15.9574 16.9465 15.0219 16.4465 14.2877 15.7123C14.277 15.7016 14.2666 15.6906 14.2566 15.6792L8.63621 9.33303C8.11005 8.81293 7.44181 8.46009 6.71557 8.31891C5.98934 8.17773 5.23757 8.25453 4.55488 8.53963C3.87219 8.82473 3.28909 9.30539 2.87895 9.92113C2.46882 10.5369 2.24998 11.2602 2.24998 12C2.24998 12.7398 2.46882 13.4631 2.87895 14.0789C3.28909 14.6946 3.87219 15.1753 4.55488 15.4604C5.23757 15.7455 5.98934 15.8223 6.71557 15.6811C7.44181 15.5399 8.11005 15.1871 8.63621 14.667L9.43487 13.7652C9.50013 13.6913 9.57932 13.631 9.66789 13.5878C9.75647 13.5446 9.8527 13.5192 9.95109 13.5132C10.0495 13.5071 10.1481 13.5206 10.2413 13.5527C10.3345 13.5848 10.4204 13.635 10.4942 13.7003C10.568 13.7657 10.6282 13.8449 10.6713 13.9336C10.7144 14.0222 10.7397 14.1185 10.7456 14.2168C10.7515 14.3152 10.7379 14.4138 10.7057 14.507C10.6735 14.6001 10.6232 14.686 10.5578 14.7597L9.7434 15.6792C9.73338 15.6905 9.723 15.7016 9.71228 15.7123C8.97806 16.4465 8.0426 16.9465 7.02419 17.1491C6.00579 17.3517 4.95019 17.2477 3.99087 16.8504C3.03155 16.453 2.21161 15.7801 1.63473 14.9168C1.05785 14.0534 0.749939 13.0384 0.749939 12C0.749939 10.9616 1.05785 9.94661 1.63473 9.08325C2.21161 8.21989 3.03155 7.54698 3.99087 7.14963C4.95019 6.75227 6.00579 6.64831 7.02419 6.85089C8.0426 7.05347 8.97806 7.55349 9.71228 8.28772C9.72299 8.29843 9.73337 8.30945 9.7434 8.32077L15.3638 14.667C15.8899 15.1871 16.5582 15.5399 17.2844 15.6811C18.0107 15.8223 18.7624 15.7455 19.4451 15.4604C20.1278 15.1753 20.7109 14.6946 21.121 14.0789C21.5312 13.4631 21.75 12.7398 21.75 12C21.75 11.2602 21.5312 10.5369 21.121 9.92113C20.7109 9.30539 20.1278 8.82473 19.4451 8.53963C18.7624 8.25453 18.0107 8.17773 17.2844 8.31891C16.5582 8.46009 15.8899 8.81293 15.3638 9.33303L14.5651 10.2348C14.4331 10.3834 14.2476 10.4735 14.0492 10.4854C13.8509 10.4972 13.6559 10.4299 13.5072 10.2981C13.3584 10.1664 13.268 9.98099 13.2558 9.78265C13.2437 9.58431 13.3107 9.38924 13.4422 9.24028L14.2566 8.32077C14.2666 8.30947 14.277 8.29845 14.2877 8.28772C15.0219 7.55351 15.9574 7.0535 16.9758 6.85094C17.9942 6.64837 19.0498 6.75233 20.0091 7.14969C20.9684 7.54704 21.7883 8.21994 22.3652 9.08329C22.9421 9.94664 23.25 10.9617 23.25 12Z" fill="#2D2D2D"/>
</svg>
