<svg width="40" height="40" viewBox="0 0 40 40" fill="none" xmlns="http://www.w3.org/2000/svg">
<path d="M16.2504 6.25H8.75037C7.36965 6.25 6.25037 7.36929 6.25037 8.75V16.25C6.25037 17.6307 7.36965 18.75 8.75037 18.75H16.2504C17.6311 18.75 18.7504 17.6307 18.7504 16.25V8.75C18.7504 7.36929 17.6311 6.25 16.2504 6.25Z" fill="white"/>
<path d="M16.2504 21.25H8.75037C7.36965 21.25 6.25037 22.3693 6.25037 23.75V31.25C6.25037 32.6307 7.36965 33.75 8.75037 33.75H16.2504C17.6311 33.75 18.7504 32.6307 18.7504 31.25V23.75C18.7504 22.3693 17.6311 21.25 16.2504 21.25Z" fill="white"/>
<path d="M31.25 21.25H23.75C22.3693 21.25 21.25 22.3693 21.25 23.75V31.25C21.25 32.6307 22.3693 33.75 23.75 33.75H31.25C32.6307 33.75 33.75 32.6307 33.75 31.25V23.75C33.75 22.3693 32.6307 21.25 31.25 21.25Z" fill="white"/>
<path d="M31.2504 6.25H23.7504C22.3697 6.25 21.2504 7.36929 21.2504 8.75V16.25C21.2504 17.6307 22.3697 18.75 23.7504 18.75H31.2504C32.6311 18.75 33.7504 17.6307 33.7504 16.25V8.75C33.7504 7.36929 32.6311 6.25 31.2504 6.25Z" fill="white"/>
</svg>
