<svg width="60" height="60" viewBox="0 0 60 60" fill="none" xmlns="http://www.w3.org/2000/svg">
<path d="M54.375 13.125H5.625C4.63079 13.1261 3.67762 13.5216 2.97461 14.2246C2.27159 14.9276 1.87614 15.8808 1.875 16.875V43.125C1.87614 44.1192 2.27159 45.0724 2.97461 45.7754C3.67762 46.4784 4.63079 46.8739 5.625 46.875H54.375C55.3692 46.8739 56.3224 46.4784 57.0254 45.7754C57.7284 45.0724 58.1239 44.1192 58.125 43.125V16.875C58.1239 15.8808 57.7284 14.9276 57.0254 14.2246C56.3224 13.5216 55.3692 13.1261 54.375 13.125ZM17.5686 43.125L5.625 32.8876V27.1124L17.5686 16.875H42.4314L54.3759 27.1131L54.3764 32.8864L42.4314 43.125H17.5686ZM39.375 30C39.375 31.8542 38.8252 33.6668 37.795 35.2085C36.7649 36.7502 35.3007 37.9518 33.5877 38.6614C31.8746 39.3709 29.9896 39.5566 28.171 39.1949C26.3525 38.8331 24.682 37.9402 23.3709 36.6291C22.0598 35.318 21.1669 33.6475 20.8051 31.829C20.4434 30.0104 20.6291 28.1254 21.3386 26.4123C22.0482 24.6993 23.2498 23.2351 24.7915 22.205C26.3332 21.1748 28.1458 20.625 30 20.625C32.4855 20.6278 34.8685 21.6165 36.626 23.374C38.3835 25.1316 39.3722 27.5145 39.375 30Z" fill="#2D2D2D"/>
</svg>
