<svg width="60" height="60" viewBox="0 0 60 60" fill="none" xmlns="http://www.w3.org/2000/svg">
<path d="M48.75 15H54.375V13.125C54.3739 12.1308 53.9784 11.1776 53.2754 10.4746C52.5724 9.77159 51.6192 9.37614 50.625 9.375H9.375C8.38079 9.37614 7.42762 9.77159 6.72461 10.4746C6.02159 11.1776 5.62614 12.1308 5.625 13.125V15H11.25C11.7473 15 12.2242 15.1975 12.5758 15.5492C12.9275 15.9008 13.125 16.3777 13.125 16.875C13.125 17.3723 12.9275 17.8492 12.5758 18.2008C12.2242 18.5525 11.7473 18.75 11.25 18.75H5.625V41.25H11.25C11.7473 41.25 12.2242 41.4475 12.5758 41.7992C12.9275 42.1508 13.125 42.6277 13.125 43.125C13.125 43.6223 12.9275 44.0992 12.5758 44.4508C12.2242 44.8025 11.7473 45 11.25 45H5.625V46.875C5.62614 47.8692 6.02159 48.8224 6.72461 49.5254C7.42762 50.2284 8.38079 50.6239 9.375 50.625H50.625C51.6192 50.6239 52.5724 50.2284 53.2754 49.5254C53.9784 48.8224 54.3739 47.8692 54.375 46.875V45H48.75C48.2527 45 47.7758 44.8025 47.4242 44.4508C47.0725 44.0992 46.875 43.6223 46.875 43.125C46.875 42.6277 47.0725 42.1508 47.4242 41.7992C47.7758 41.4475 48.2527 41.25 48.75 41.25H54.375V18.75H48.75C48.2527 18.75 47.7758 18.5525 47.4242 18.2008C47.0725 17.8492 46.875 17.3723 46.875 16.875C46.875 16.3777 47.0725 15.9008 47.4242 15.5492C47.7758 15.1975 48.2527 15 48.75 15ZM25.3125 45H20.625C20.1277 45 19.6508 44.8025 19.2992 44.4508C18.9475 44.0992 18.75 43.6223 18.75 43.125C18.75 42.6277 18.9475 42.1508 19.2992 41.7992C19.6508 41.4475 20.1277 41.25 20.625 41.25H25.3125C25.8098 41.25 26.2867 41.4475 26.6383 41.7992C26.99 42.1508 27.1875 42.6277 27.1875 43.125C27.1875 43.6223 26.99 44.0992 26.6383 44.4508C26.2867 44.8025 25.8098 45 25.3125 45ZM25.3125 18.75H20.625C20.1277 18.75 19.6508 18.5525 19.2992 18.2008C18.9475 17.8492 18.75 17.3723 18.75 16.875C18.75 16.3777 18.9475 15.9008 19.2992 15.5492C19.6508 15.1975 20.1277 15 20.625 15H25.3125C25.8098 15 26.2867 15.1975 26.6383 15.5492C26.99 15.9008 27.1875 16.3777 27.1875 16.875C27.1875 17.3723 26.99 17.8492 26.6383 18.2008C26.2867 18.5525 25.8098 18.75 25.3125 18.75ZM39.375 45H34.6875C34.1902 45 33.7133 44.8025 33.3617 44.4508C33.01 44.0992 32.8125 43.6223 32.8125 43.125C32.8125 42.6277 33.01 42.1508 33.3617 41.7992C33.7133 41.4475 34.1902 41.25 34.6875 41.25H39.375C39.8723 41.25 40.3492 41.4475 40.7008 41.7992C41.0525 42.1508 41.25 42.6277 41.25 43.125C41.25 43.6223 41.0525 44.0992 40.7008 44.4508C40.3492 44.8025 39.8723 45 39.375 45ZM39.375 18.75H34.6875C34.1902 18.75 33.7133 18.5525 33.3617 18.2008C33.01 17.8492 32.8125 17.3723 32.8125 16.875C32.8125 16.3777 33.01 15.9008 33.3617 15.5492C33.7133 15.1975 34.1902 15 34.6875 15H39.375C39.8723 15 40.3492 15.1975 40.7008 15.5492C41.0525 15.9008 41.25 16.3777 41.25 16.875C41.25 17.3723 41.0525 17.8492 40.7008 18.2008C40.3492 18.5525 39.8723 18.75 39.375 18.75Z" fill="#2D2D2D"/>
</svg>
