<svg width="60" height="60" viewBox="0 0 60 60" fill="none" xmlns="http://www.w3.org/2000/svg">
<path d="M49.9021 6.02151C49.6784 5.84476 49.417 5.72206 49.1381 5.66298C48.8592 5.60391 48.5705 5.61005 48.2944 5.68093L18.2944 13.1809C17.8887 13.2821 17.5284 13.516 17.2709 13.8455C17.0135 14.1749 16.8736 14.581 16.8735 14.9992V40.8028C15.3099 39.7588 13.4423 39.2671 11.5673 39.4061C9.69231 39.545 7.91752 40.3065 6.52489 41.5696C5.13226 42.8327 4.20166 44.525 3.88094 46.3775C3.56022 48.2301 3.86777 50.1367 4.75474 51.7945C5.64171 53.4522 7.05721 54.766 8.77637 55.5272C10.4955 56.2883 12.4197 56.4532 14.2433 55.9955C16.0669 55.5378 17.6852 54.4838 18.8412 53.0011C19.9971 51.5183 20.6245 49.6918 20.6235 47.8117V25.8372L46.8735 19.2747V33.3028C45.3099 32.2588 43.4423 31.7671 41.5673 31.9061C39.6923 32.045 37.9175 32.8065 36.5249 34.0696C35.1323 35.3327 34.2017 37.025 33.8809 38.8775C33.5602 40.7301 33.8678 42.6367 34.7547 44.2945C35.6417 45.9522 37.0572 47.266 38.7764 48.0272C40.4955 48.7883 42.4198 48.9532 44.2433 48.4955C46.0669 48.0378 47.6852 46.9838 48.8412 45.5011C49.9972 44.0183 50.6245 42.1918 50.6235 40.3117V7.49917C50.6232 7.21429 50.558 6.93321 50.433 6.67721C50.3081 6.42121 50.1265 6.19699 49.9021 6.02151Z" fill="#2D2D2D"/>
</svg>
