<svg width="40" height="40" viewBox="0 0 40 40" fill="none" xmlns="http://www.w3.org/2000/svg">
<path d="M31.3706 8.42027C28.3449 5.4243 24.2576 3.74562 19.9996 3.75001C19.9441 3.75001 19.8886 3.75026 19.8331 3.75077C16.0138 3.79059 12.3304 5.17431 9.42957 7.65911C6.52872 10.1439 4.59568 13.571 3.96971 17.3389C3.34375 21.1069 4.06484 24.9749 6.00645 28.2642C7.94806 31.5534 10.9861 34.0538 14.5875 35.3264C15.3416 35.5922 16.1485 35.6733 16.9404 35.5629C17.7324 35.4525 18.4863 35.1537 19.1389 34.6917C19.7915 34.2297 20.3239 33.6179 20.6912 32.9076C21.0585 32.1974 21.2501 31.4094 21.25 30.6098V30C21.2507 29.3372 21.5144 28.7018 21.9831 28.2331C22.4517 27.7644 23.0872 27.5008 23.75 27.5H30.9702C32.1043 27.5055 33.2062 27.123 34.093 26.4162C34.9799 25.7093 35.5984 24.7205 35.846 23.6137C36.1251 22.3825 36.2605 21.1231 36.2494 19.8607C36.234 17.7257 35.7948 15.6151 34.9573 13.6512C34.1198 11.6873 32.9007 9.90929 31.3706 8.42027ZM13.901 25.6863C13.5799 25.8717 13.2109 25.9577 12.8409 25.9335C12.4708 25.9092 12.1163 25.7758 11.8221 25.55C11.5279 25.3243 11.3072 25.0163 11.188 24.6652C11.0688 24.314 11.0564 23.9354 11.1524 23.5772C11.2484 23.219 11.4484 22.8973 11.7272 22.6528C12.0061 22.4083 12.3511 22.2519 12.7188 22.2035C13.0865 22.1551 13.4602 22.2168 13.7928 22.3809C14.1254 22.5449 14.4019 22.8038 14.5873 23.125C14.7104 23.3382 14.7903 23.5736 14.8225 23.8178C14.8546 24.0619 14.8384 24.3099 14.7746 24.5478C14.7109 24.7856 14.601 25.0086 14.4511 25.2039C14.3012 25.3993 14.1143 25.5632 13.901 25.6863V25.6863ZM14.5873 16.875C14.4019 17.1962 14.1254 17.4551 13.7928 17.6191C13.4602 17.7831 13.0865 17.8448 12.7188 17.7964C12.3511 17.748 12.0061 17.5917 11.7273 17.3472C11.4485 17.1027 11.2484 16.781 11.1524 16.4228C11.0565 16.0646 11.0688 15.6859 11.188 15.3348C11.3072 14.9836 11.5279 14.6757 11.8221 14.4499C12.1163 14.2242 12.4709 14.0908 12.8409 14.0665C13.2109 14.0422 13.5799 14.1283 13.901 14.3137C14.1143 14.4368 14.3012 14.6007 14.4511 14.796C14.601 14.9914 14.7109 15.2144 14.7747 15.4522C14.8384 15.69 14.8546 15.9381 14.8225 16.1822C14.7904 16.4264 14.7104 16.6618 14.5873 16.875V16.875ZM20 13.75C19.6291 13.75 19.2666 13.64 18.9583 13.434C18.6499 13.228 18.4096 12.9352 18.2677 12.5925C18.1258 12.2499 18.0887 11.8729 18.161 11.5092C18.2334 11.1455 18.4119 10.8114 18.6742 10.5492C18.9364 10.287 19.2705 10.1084 19.6342 10.036C19.9979 9.96369 20.3749 10.0008 20.7175 10.1427C21.0601 10.2846 21.353 10.525 21.559 10.8333C21.765 11.1417 21.875 11.5042 21.875 11.875C21.875 12.3723 21.6774 12.8492 21.3258 13.2008C20.9742 13.5525 20.4973 13.75 20 13.75ZM27.9739 17.5613C27.6528 17.7467 27.2839 17.8327 26.9138 17.8085C26.5438 17.7842 26.1892 17.6508 25.895 17.425C25.6008 17.1993 25.3801 16.8913 25.2609 16.5402C25.1417 16.189 25.1293 15.8104 25.2253 15.4522C25.3213 15.094 25.5213 14.7723 25.8002 14.5278C26.079 14.2833 26.424 14.1269 26.7917 14.0785C27.1594 14.0301 27.5331 14.0918 27.8657 14.2559C28.1983 14.4199 28.4748 14.6788 28.6602 15C28.7834 15.2132 28.8633 15.4486 28.8954 15.6928C28.9275 15.9369 28.9113 16.1849 28.8475 16.4228C28.7838 16.6606 28.6739 16.8836 28.524 17.0789C28.3741 17.2743 28.1872 17.4382 27.9739 17.5613V17.5613Z" fill="white"/>
</svg>
