<svg width="60" height="60" viewBox="0 0 60 60" fill="none" xmlns="http://www.w3.org/2000/svg">
<path d="M58.1255 48.75C58.1255 49.2473 57.9279 49.7242 57.5763 50.0758C57.2247 50.4274 56.7478 50.625 56.2505 50.625H3.75049C3.25321 50.625 2.77629 50.4275 2.42466 50.0758C2.07303 49.7242 1.87549 49.2473 1.87549 48.75C1.87549 48.2527 2.07303 47.7758 2.42466 47.4242C2.77629 47.0725 3.25321 46.875 3.75049 46.875H56.2505C56.7478 46.875 57.2247 47.0726 57.5763 47.4242C57.9279 47.7758 58.1255 48.2527 58.1255 48.75ZM3.82144 23.0106C3.7102 22.6178 3.73023 22.1994 3.8785 21.819C4.02677 21.4386 4.29516 21.117 4.6429 20.9031L29.0179 5.90309C29.3134 5.72127 29.6535 5.625 30.0005 5.625C30.3474 5.625 30.6876 5.72127 30.9831 5.90309L55.3581 20.9031C55.7058 21.1171 55.9741 21.4386 56.1224 21.819C56.2707 22.1994 56.2907 22.6178 56.1796 23.0106C56.0684 23.4034 55.832 23.7492 55.5064 23.9955C55.1808 24.2417 54.7837 24.375 54.3755 24.375H48.7505V39.375H52.5005C52.9978 39.375 53.4747 39.5725 53.8263 39.9242C54.1779 40.2758 54.3755 40.7527 54.3755 41.25C54.3755 41.7473 54.1779 42.2242 53.8263 42.5758C53.4747 42.9275 52.9978 43.125 52.5005 43.125H7.50049C7.00321 43.125 6.52629 42.9275 6.17466 42.5758C5.82303 42.2242 5.62549 41.7473 5.62549 41.25C5.62549 40.7527 5.82303 40.2758 6.17466 39.9242C6.52629 39.5725 7.00321 39.375 7.50049 39.375H11.2505V24.375H5.62549C5.21724 24.375 4.82015 24.2418 4.49453 23.9955C4.16892 23.7493 3.93259 23.4035 3.82144 23.0106ZM33.7505 37.5C33.7505 37.9973 33.948 38.4742 34.2997 38.8258C34.6513 39.1775 35.1282 39.375 35.6255 39.375C36.1228 39.375 36.5997 39.1775 36.9513 38.8258C37.3029 38.4742 37.5005 37.9973 37.5005 37.5V26.25C37.5005 25.7527 37.3029 25.2758 36.9513 24.9242C36.5997 24.5725 36.1228 24.375 35.6255 24.375C35.1282 24.375 34.6513 24.5725 34.2997 24.9242C33.948 25.2758 33.7505 25.7527 33.7505 26.25V37.5ZM22.5005 37.5C22.5005 37.9973 22.698 38.4742 23.0497 38.8258C23.4013 39.1775 23.8782 39.375 24.3755 39.375C24.8728 39.375 25.3497 39.1775 25.7013 38.8258C26.0529 38.4742 26.2505 37.9973 26.2505 37.5V26.25C26.2505 25.7527 26.0529 25.2758 25.7013 24.9242C25.3497 24.5725 24.8728 24.375 24.3755 24.375C23.8782 24.375 23.4013 24.5725 23.0497 24.9242C22.698 25.2758 22.5005 25.7527 22.5005 26.25V37.5Z" fill="#2D2D2D"/>
</svg>
