<svg width="60" height="60" viewBox="0 0 60 60" fill="none" xmlns="http://www.w3.org/2000/svg">
<path d="M52.0096 10.8784C51.3951 9.861 50.5103 9.01603 49.4444 8.42864C48.3784 7.84125 47.1689 7.5322 45.9378 7.53263C44.7067 7.53305 43.4975 7.84295 42.432 8.43107C41.3665 9.0192 40.4823 9.86479 39.8686 10.8826L35.3066 3.34651C34.6861 2.3186 33.7898 1.46683 32.7098 0.878752C31.6299 0.290672 30.4051 -0.0125021 29.1616 0.000394956C27.9181 0.013292 26.7006 0.341794 25.6343 0.952134C24.5679 1.56247 23.6913 2.43263 23.0944 3.47317C22.0582 2.32986 20.6465 1.555 19.0894 1.27489C17.5324 0.99478 15.9217 1.22593 14.52 1.93067C13.1184 2.63541 12.0083 3.77217 11.3708 5.15568C10.7332 6.53919 10.6058 8.08787 11.0093 9.54927C9.87743 9.70743 8.80333 10.1275 7.88089 10.7729C6.95844 11.4182 6.21571 12.2691 5.71757 13.2513C5.21943 14.2336 4.98104 15.3172 5.02322 16.4075C5.0654 17.4979 5.38687 18.5618 5.95955 19.5063L7.01553 21.2508C5.78448 21.2491 4.5747 21.5568 3.50804 22.143C2.44137 22.7291 1.5555 23.573 0.939639 24.5897C0.32378 25.6063 -0.00031362 26.7597 2.27727e-07 27.9339C0.000314076 29.108 0.325025 30.2613 0.941427 31.2776L11.7502 49.133C13.9155 52.7108 17.1051 55.6257 20.9454 57.5363C24.7856 59.4468 29.1173 60.2738 33.4327 59.9203C37.7481 59.5667 41.8685 58.0473 45.3108 55.5401C48.7531 53.0329 51.3748 49.6418 52.8686 45.7643C56.5867 42.3977 59.0124 37.9382 59.7571 33.1003C60.5018 28.2625 59.5224 23.3262 56.9759 19.0824L52.0096 10.8784ZM41.1241 54.1919C36.6943 56.6247 31.4336 57.2823 26.496 56.0205C21.5584 54.7588 17.3472 51.6806 14.7862 47.4613L3.97741 29.6059C3.51255 28.8379 3.38658 27.9253 3.62723 27.0688C3.86788 26.2123 4.45542 25.482 5.26062 25.0386C6.06581 24.5953 7.02269 24.4751 7.92075 24.7047C8.81882 24.9342 9.58451 25.4945 10.0494 26.2625L17.0605 37.8444C17.1755 38.0347 17.3287 38.2014 17.5113 38.3352C17.6939 38.469 17.9024 38.5671 18.1248 38.624C18.3472 38.6809 18.5792 38.6954 18.8075 38.6668C19.0358 38.6382 19.2559 38.5669 19.4553 38.4571C19.6548 38.3473 19.8295 38.2011 19.9697 38.0269C20.1098 37.8526 20.2126 37.6537 20.2721 37.4416C20.3317 37.2295 20.3468 37.0082 20.3167 36.7905C20.2865 36.5728 20.2117 36.3629 20.0965 36.1727L8.99554 17.8346C8.76536 17.4544 8.61596 17.0346 8.55587 16.5993C8.49578 16.164 8.52617 15.7217 8.64531 15.2976C8.76446 14.8735 8.97002 14.4759 9.25026 14.1276C9.5305 13.7793 9.87993 13.487 10.2786 13.2675C10.6773 13.0479 11.1174 12.9055 11.5738 12.8481C12.0302 12.7908 12.494 12.8198 12.9386 12.9335C13.3833 13.0471 13.8001 13.2431 14.1654 13.5104C14.5306 13.7777 14.837 14.111 15.0672 14.4912L26.1681 32.8293C26.4007 33.213 26.7835 33.493 27.2324 33.6076C27.6814 33.7222 28.1596 33.6621 28.5621 33.4405C28.9645 33.2189 29.2582 32.8539 29.3786 32.4258C29.499 31.9977 29.4363 31.5416 29.2041 31.1576L20.4402 16.6803C19.9754 15.9124 19.8494 14.9996 20.09 14.1431C20.3306 13.2866 20.9181 12.5564 21.7233 12.113C22.5285 11.6697 23.4853 11.5495 24.3833 11.779C25.2814 12.0085 26.047 12.5688 26.5119 13.3367L38.7814 33.605C39.0139 33.9888 39.3967 34.2687 39.8457 34.3833C40.2946 34.4979 40.7728 34.4378 41.1753 34.2162C41.5777 33.9946 41.8714 33.6296 41.9918 33.2015C42.1122 32.7734 42.0495 32.3173 41.8173 31.9333L37.1434 24.2122C36.6785 23.4443 36.5524 22.5315 36.793 21.675C37.0337 20.8185 37.6212 20.0883 38.4263 19.6449C39.2315 19.2016 40.1883 19.0814 41.0864 19.3109C41.9844 19.5404 42.7501 20.1007 43.2149 20.8686L48.1811 29.0726C49.4471 31.1639 50.2689 33.4725 50.5994 35.8667C50.9299 38.2609 50.7627 40.6937 50.1074 43.0262C49.4521 45.3588 48.3215 47.5454 46.7801 49.4612C45.2388 51.377 43.3168 52.9845 41.1241 54.1919Z" fill="#2D2D2D"/>
</svg>
