<svg width="60" height="60" viewBox="0 0 60 60" fill="none" xmlns="http://www.w3.org/2000/svg">
<path d="M45.9598 30.0001C47.7047 27.5958 49.2118 25.0277 50.4599 22.3319C53.0561 16.5627 53.0882 11.9876 50.5503 9.44973C46.4607 5.3611 38.0955 8.29914 30 14.0634C21.9046 8.29903 13.5393 5.36087 9.44972 9.44973C6.91176 11.9876 6.94392 16.5627 9.54013 22.3319C10.7882 25.0277 12.2953 27.5958 14.0402 30.0001C12.2953 32.4044 10.7882 34.9725 9.54013 37.6683C6.94392 43.4375 6.91176 48.0127 9.44972 50.5505C10.7664 51.867 12.526 52.4553 14.5775 52.4553C18.8977 52.4553 24.5108 49.8445 30 45.9358C35.4891 49.8445 41.1021 52.4553 45.4225 52.4553C47.4733 52.4553 49.2338 51.8668 50.5503 50.5505C53.0882 48.0127 53.0561 43.4375 50.4599 37.6683C49.2118 34.9725 47.7047 32.4044 45.9598 30.0001ZM45.4161 11.3204C46.5353 11.3204 47.3836 11.5866 47.8987 12.1016C49.2169 13.4197 48.896 16.6689 47.0401 20.7931C46.062 22.9152 44.9021 24.9487 43.5736 26.8709C42.0169 24.9575 40.3628 23.1256 38.6178 21.3823C36.8713 19.636 35.0341 17.9828 33.1138 16.4295C38.2464 12.9404 42.6564 11.3204 45.4161 11.3204ZM41.2783 30.0001C39.6267 32.0918 37.853 34.0839 35.9663 35.9661C34.0842 37.8555 32.0921 39.632 30.0003 41.2862C27.9083 39.632 25.9159 37.8556 24.0337 35.9661C22.147 34.0839 20.3732 32.0918 18.7217 30.0001C22.035 25.8173 25.8194 22.0304 30 18.7143C32.0919 20.3684 34.0841 22.1447 35.9663 24.0341C37.853 25.9163 39.6267 27.9085 41.2783 30.0001ZM12.9598 20.7931C11.104 16.6689 10.7831 13.4197 12.1013 12.1016C12.6164 11.5863 13.4642 11.3204 14.5839 11.3204C17.3437 11.3204 21.7537 12.9406 26.8862 16.4295C24.9659 17.9828 23.1287 19.636 21.3821 21.3823C19.6371 23.1256 17.983 24.9575 16.4264 26.8709C15.0978 24.9487 13.938 22.9152 12.9598 20.7931ZM12.1013 47.8987C10.7831 46.5805 11.104 43.3313 12.9598 39.2071C13.938 37.085 15.0978 35.0515 16.4264 33.1293C17.983 35.0427 19.6371 36.8746 21.3821 38.618C23.1293 40.3643 24.9671 42.0176 26.888 43.5709C19.6724 48.4765 13.8865 49.6834 12.1013 47.8987ZM47.8987 47.8987C47.3836 48.4139 46.5358 48.6798 45.4161 48.6798C42.6561 48.6796 38.2458 47.0592 33.113 43.5701C35.0335 42.017 36.871 40.364 38.6178 38.618C40.3628 36.8746 42.0169 35.0427 43.5736 33.1293C44.9021 35.0515 46.062 37.085 47.0401 39.2071C48.896 43.3313 49.2169 46.5805 47.8987 47.8987ZM32.8125 30.0001C32.8125 30.5564 32.6475 31.1001 32.3385 31.5627C32.0295 32.0252 31.5902 32.3857 31.0763 32.5985C30.5624 32.8114 29.9969 32.8671 29.4513 32.7586C28.9057 32.6501 28.4046 32.3822 28.0112 31.9888C27.6179 31.5955 27.35 31.0944 27.2415 30.5488C27.133 30.0032 27.1887 29.4377 27.4016 28.9238C27.6144 28.4099 27.9749 27.9706 28.4374 27.6616C28.9 27.3526 29.4437 27.1876 30 27.1876C30.7459 27.1876 31.4613 27.4839 31.9887 28.0114C32.5162 28.5388 32.8125 29.2542 32.8125 30.0001Z" fill="#2D2D2D"/>
</svg>
