<svg width="40" height="40" viewBox="0 0 40 40" fill="none" xmlns="http://www.w3.org/2000/svg">
<path d="M27.5 25C26.6662 24.9997 25.8407 25.1668 25.0727 25.4914C24.3046 25.8159 23.6095 26.2914 23.0285 26.8895L15.8257 22.2591C16.3914 20.8062 16.3914 19.1938 15.8257 17.7409L23.0285 13.1105C24.1097 14.2166 25.5631 14.8818 27.1069 14.9772C28.6507 15.0727 30.175 14.5916 31.3843 13.6271C32.5935 12.6627 33.4016 11.2836 33.6519 9.75725C33.9023 8.23089 33.577 6.66594 32.7391 5.36577C31.9013 4.06559 30.6106 3.12279 29.1171 2.72012C27.6237 2.31746 26.034 2.4836 24.6561 3.18634C23.2782 3.88909 22.2103 5.07839 21.6594 6.52371C21.1085 7.96902 21.1138 9.5674 21.6743 11.009L14.4714 15.6394C13.6041 14.7488 12.4908 14.1371 11.274 13.8825C10.0572 13.6279 8.79209 13.7419 7.64042 14.2101C6.48876 14.6782 5.50287 15.4791 4.80878 16.5105C4.1147 17.5419 3.74396 18.7568 3.74396 20C3.74396 21.2432 4.1147 22.4581 4.80878 23.4895C5.50287 24.5208 6.48876 25.3218 7.64042 25.7899C8.79209 26.2581 10.0572 26.3721 11.274 26.1175C12.4908 25.8629 13.6041 25.2512 14.4714 24.3606L21.6743 28.991C21.1921 30.2353 21.1209 31.6014 21.4711 32.8891C21.8214 34.1769 22.5747 35.3186 23.6208 36.1473C24.6669 36.976 25.9508 37.448 27.2845 37.4942C28.6183 37.5404 29.9317 37.1585 31.0327 36.4043C32.1337 35.65 32.9643 34.5632 33.4029 33.3028C33.8415 32.0424 33.8651 30.6747 33.4702 29.3999C33.0753 28.1251 32.2827 27.0103 31.2084 26.2185C30.1341 25.4268 28.8345 24.9998 27.5 25V25Z" fill="white"/>
</svg>
