<svg width="60" height="60" viewBox="0 0 60 60" fill="none" xmlns="http://www.w3.org/2000/svg">
<path d="M58.125 28.125H56.25V20.625C56.2489 19.6308 55.8534 18.6776 55.1504 17.9746C54.4474 17.2716 53.4942 16.8761 52.5 16.875H48.75V15C48.7489 14.0058 48.3534 13.0526 47.6504 12.3496C46.9474 11.6466 45.9942 11.2511 45 11.25H39.375C38.3808 11.2511 37.4276 11.6466 36.7246 12.3496C36.0216 13.0526 35.6261 14.0058 35.625 15V28.125H24.375V15C24.3739 14.0058 23.9784 13.0526 23.2754 12.3496C22.5724 11.6466 21.6192 11.2511 20.625 11.25H15C14.0058 11.2511 13.0526 11.6466 12.3496 12.3496C11.6466 13.0526 11.2511 14.0058 11.25 15V16.875H7.5C6.50579 16.8761 5.55262 17.2716 4.84961 17.9746C4.14659 18.6776 3.75114 19.6308 3.75 20.625V28.125H1.875C1.37772 28.125 0.900806 28.3225 0.549175 28.6742C0.197544 29.0258 0 29.5027 0 30C0 30.4973 0.197544 30.9742 0.549175 31.3258C0.900806 31.6775 1.37772 31.875 1.875 31.875H3.75V39.375C3.75114 40.3692 4.14659 41.3224 4.84961 42.0254C5.55262 42.7284 6.50579 43.1239 7.5 43.125H11.25V45C11.2511 45.9942 11.6466 46.9474 12.3496 47.6504C13.0526 48.3534 14.0058 48.7489 15 48.75H20.625C21.6192 48.7489 22.5724 48.3534 23.2754 47.6504C23.9784 46.9474 24.3739 45.9942 24.375 45V31.875H35.625V45C35.6261 45.9942 36.0216 46.9474 36.7246 47.6504C37.4276 48.3534 38.3808 48.7489 39.375 48.75H45C45.9942 48.7489 46.9474 48.3534 47.6504 47.6504C48.3534 46.9474 48.7489 45.9942 48.75 45V43.125H52.5C53.4942 43.1239 54.4474 42.7284 55.1504 42.0254C55.8534 41.3224 56.2489 40.3692 56.25 39.375V31.875H58.125C58.6223 31.875 59.0992 31.6775 59.4508 31.3258C59.8025 30.9742 60 30.4973 60 30C60 29.5027 59.8025 29.0258 59.4508 28.6742C59.0992 28.3225 58.6223 28.125 58.125 28.125ZM7.5 39.375V20.625H11.25V39.375H7.5ZM52.5 39.375H48.75V20.625H52.5V39.375Z" fill="#2D2D2D"/>
</svg>
