<svg width="60" height="60" viewBox="0 0 60 60" fill="none" xmlns="http://www.w3.org/2000/svg">
<path d="M41.2499 50.6249C41.2499 51.1222 41.0523 51.5991 40.7007 51.9507C40.3491 52.3023 39.8722 52.4999 39.3749 52.4999H5.6249C5.12762 52.4999 4.6507 52.3023 4.29907 51.9507C3.94744 51.5991 3.7499 51.1222 3.7499 50.6249C3.7499 50.1276 3.94744 49.6507 4.29907 49.299C4.6507 48.9474 5.12762 48.7499 5.6249 48.7499H39.3749C39.8722 48.7499 40.3491 48.9474 40.7007 49.2991C41.0523 49.6507 41.2499 50.1276 41.2499 50.6249ZM57.913 20.9687L53.5443 15.6294C52.2747 14.0635 50.484 13.0067 48.4994 12.6524C46.5148 12.2981 44.4691 12.6698 42.736 13.6997L32.7044 19.6006L19.0463 15.0479C18.8285 14.9756 18.5917 14.9854 18.3807 15.0756L14.5135 16.7329C14.0796 16.9189 13.6995 17.2111 13.4082 17.5827C13.1169 17.9543 12.9239 18.3932 12.8468 18.859C12.7698 19.3248 12.8112 19.8025 12.9673 20.248C13.1235 20.6936 13.3892 21.0927 13.7401 21.4086L19.9714 27.0167L14.9402 29.8917L8.80658 27.2631C8.68991 27.2132 8.56431 27.1874 8.4374 27.1874C8.31048 27.1874 8.18488 27.2132 8.06821 27.2631L4.14174 28.9459C3.71223 29.1299 3.33534 29.4181 3.04514 29.7844C2.75494 30.1506 2.56056 30.5834 2.47957 31.0436C2.39859 31.5038 2.43355 31.977 2.58129 32.4203C2.72903 32.8636 2.9849 33.2632 3.32578 33.5828H3.32601L12.1609 41.8655C13.4809 43.1144 15.171 43.9007 16.9766 44.1061C18.7822 44.3115 20.6057 43.9249 22.1726 43.0044L57.6587 22.3728C57.7759 22.3046 57.877 22.2118 57.9549 22.1007C58.0328 21.9896 58.0856 21.8629 58.1098 21.7294C58.134 21.5959 58.1289 21.4588 58.0949 21.3274C58.0609 21.1961 57.9988 21.0737 57.913 20.9687L57.913 20.9687Z" fill="#2D2D2D"/>
</svg>
